<svg width="19" height="12" viewBox="0 0 19 12" fill="none" xmlns="http://www.w3.org/2000/svg">
<path d="M18.7079 5.6338C18.5397 5.40371 14.5321 0 9.4137 0C4.29527 0 0.287485 5.40371 0.119471 5.63358C0.041836 5.73994 0 5.86821 0 5.99989C0 6.13157 0.041836 6.25984 0.119471 6.3662C0.287485 6.59629 4.29527 12 9.4137 12C14.5321 12 18.5397 6.59625 18.7079 6.36638C18.7857 6.26008 18.8276 6.13179 18.8276 6.00009C18.8276 5.86839 18.7857 5.74011 18.7079 5.6338ZM9.4137 10.7586C5.64343 10.7586 2.37798 7.17207 1.41133 5.99958C2.37673 4.82605 5.63534 1.24137 9.4137 1.24137C13.1838 1.24137 16.449 4.8273 17.4161 6.00042C16.4507 7.17391 13.1921 10.7586 9.4137 10.7586Z" fill="black"/>
<path d="M9.4137 2.27586C7.36024 2.27586 5.68954 3.94656 5.68954 6.00002C5.68954 8.05348 7.36024 9.72417 9.4137 9.72417C11.4672 9.72417 13.1379 8.05348 13.1379 6.00002C13.1379 3.94656 11.4672 2.27586 9.4137 2.27586ZM9.4137 8.48276C8.04465 8.48276 6.93095 7.36903 6.93095 6.00002C6.93095 4.63101 8.04469 3.51727 9.4137 3.51727C10.7827 3.51727 11.8964 4.63101 11.8964 6.00002C11.8964 7.36903 10.7827 8.48276 9.4137 8.48276Z" fill="black"/>
</svg>
