<?xml version="1.0" encoding="utf-8"?>
<!-- Generator: Adobe Illustrator 16.0.0, SVG Export Plug-In . SVG Version: 6.00 Build 0)  -->
<!DOCTYPE svg PUBLIC "-//W3C//DTD SVG 1.1//EN" "http://www.w3.org/Graphics/SVG/1.1/DTD/svg11.dtd">
<svg version="1.1" id="Layer_1" xmlns="http://www.w3.org/2000/svg" xmlns:xlink="http://www.w3.org/1999/xlink" x="0px" y="0px"
	 width="250px" height="500px" viewBox="0 0 250 500" enable-background="new 0 0 250 500" xml:space="preserve">
<g>
	<g>
		<path fill="#FFFFFF" d="M61.279,66.275c0-3.405-1.328-6.607-3.734-9.013l-3.657-3.658c-1.756,2.782-2.804,6.034-2.804,9.512v9.569
			h10.195V66.275z"/>
		<path fill="#FFFFFF" d="M127.548,77.784h10.195v5.098h-10.195V77.784z"/>
		<path fill="#FFFFFF" d="M127.548,66.275v6.411h10.195v-9.569c0-3.479-1.048-6.73-2.804-9.512l-3.657,3.658
			C128.876,59.671,127.548,62.87,127.548,66.275z"/>
		<path fill="#FFFFFF" d="M114.805,106.669v27.782l10.194-6.115l10.195,6.115v-27.782l-6.371-8.495h-7.646L114.805,106.669z
			 M124.999,103.272c1.406,0,2.549,1.141,2.549,2.549c0,1.406-1.143,2.548-2.549,2.548s-2.549-1.143-2.549-2.548
			C122.45,104.413,123.593,103.272,124.999,103.272z"/>
		<path fill="#FFFFFF" d="M51.084,77.784h10.195v5.098H51.084V77.784z"/>
		<path fill="#FFFFFF" d="M109.706,109.012c-1.238-0.352-2.838-0.642-5.103-0.642c-4.499,0-6.612,1.054-9.059,2.28
			c-2.642,1.32-5.638,2.817-11.336,2.817c-5.697,0-8.69-1.497-11.331-2.817c-1.924-0.963-3.663-1.814-6.501-2.136v5.078
			c4.088,0.37,6.568,1.588,8.78,2.694c2.443,1.224,4.558,2.279,9.052,2.279c4.498,0,6.61-1.055,9.058-2.281
			c2.644-1.32,5.639-2.816,11.337-2.816c1.876,0,3.533,0.173,5.103,0.499V109.012z"/>
		<path fill="#FFFFFF" d="M95.545,120.845c-2.642,1.32-5.638,2.817-11.336,2.817c-5.697,0-8.69-1.497-11.331-2.817
			c-1.924-0.963-3.663-1.814-6.501-2.136v10.051h43.329v-9.55c-1.238-0.355-2.835-0.645-5.103-0.645
			C100.104,118.565,97.991,119.619,95.545,120.845z"/>
		<path fill="#FFFFFF" d="M66.377,66.275v37.119c4.088,0.37,6.568,1.588,8.78,2.694c2.443,1.226,4.558,2.281,9.052,2.281
			c4.498,0,6.61-1.055,9.058-2.281c2.644-1.32,5.639-2.816,11.337-2.816c2.185,0,4.074,0.231,5.867,0.677l8.157-10.872h3.822V66.275
			c0-4.767,1.858-9.247,5.228-12.617l3.954-3.953c-2.078-1.817-4.578-3.191-7.398-3.898l-14.743-3.683
			c-1.227,7.211-7.52,12.719-15.076,12.719s-13.851-5.508-15.077-12.719l-14.74,3.683c-2.823,0.707-5.321,2.083-7.401,3.898
			l3.954,3.953C64.519,57.028,66.377,61.509,66.377,66.275z M107.158,65.04h10.195v5.098h-10.195V65.04z"/>
		<path fill="#FFFFFF" d="M191.27,47.198H163.79l-22.937,91.758h-89.77v15.293h96.854c2.812,0,5.099,2.286,5.099,5.097
			c0,2.811-2.287,5.098-5.099,5.098h-84.11c-7.029,0-12.744,5.713-12.744,12.744c0,7.029,5.715,12.745,12.744,12.745
			s12.744-5.716,12.744-12.745c0-2.881-0.997-5.511-2.613-7.646h51.104c-1.616,2.136-2.613,4.766-2.613,7.646
			c0,7.029,5.715,12.745,12.744,12.745s12.744-5.716,12.744-12.745c0-2.881-0.996-5.511-2.612-7.646h2.612
			c5.623,0,10.195-4.574,10.195-10.195v-12.744c0-4.216-3.431-7.646-7.646-7.646h-4.385l21.667-86.66h23.499
			c1.406,0,2.548,1.142,2.548,2.549c0,1.406-1.142,2.549-2.548,2.549h-15.294v5.098h15.294c4.215,0,7.646-3.431,7.646-7.646
			C198.916,50.627,195.484,47.198,191.27,47.198z"/>
	</g>
	<g>
		<path d="M61.279,311.609c0-3.406-1.328-6.607-3.734-9.014l-3.657-3.658c-1.756,2.782-2.804,6.034-2.804,9.513v9.569h10.195
			V311.609z"/>
		<path d="M127.548,323.117h10.195v5.098h-10.195V323.117z"/>
		<path d="M127.548,311.609v6.41h10.195v-9.569c0-3.479-1.048-6.73-2.804-9.513l-3.657,3.658
			C128.876,305.004,127.548,308.203,127.548,311.609z"/>
		<path d="M114.805,352.003v27.782l10.194-6.115l10.195,6.115v-27.782l-6.371-8.495h-7.646L114.805,352.003z M124.999,348.605
			c1.406,0,2.549,1.141,2.549,2.549c0,1.406-1.143,2.549-2.549,2.549s-2.549-1.143-2.549-2.549
			C122.45,349.746,123.593,348.605,124.999,348.605z"/>
		<path d="M51.084,323.117h10.195v5.098H51.084V323.117z"/>
		<path d="M109.706,354.346c-1.238-0.353-2.838-0.643-5.103-0.643c-4.499,0-6.612,1.055-9.059,2.28
			c-2.642,1.32-5.638,2.817-11.336,2.817c-5.697,0-8.69-1.497-11.331-2.817c-1.924-0.964-3.663-1.814-6.501-2.136v5.078
			c4.088,0.369,6.568,1.588,8.78,2.693c2.443,1.225,4.558,2.279,9.052,2.279c4.498,0,6.61-1.055,9.058-2.281
			c2.644-1.32,5.639-2.816,11.337-2.816c1.876,0,3.533,0.174,5.103,0.499V354.346z"/>
		<path d="M95.545,366.179c-2.642,1.32-5.638,2.817-11.336,2.817c-5.697,0-8.69-1.497-11.331-2.817
			c-1.924-0.964-3.663-1.814-6.501-2.136v10.051h43.329v-9.551c-1.238-0.354-2.835-0.645-5.103-0.645
			C100.104,363.898,97.991,364.953,95.545,366.179z"/>
		<path d="M66.377,311.609v37.118c4.088,0.37,6.568,1.589,8.78,2.694c2.443,1.227,4.558,2.281,9.052,2.281
			c4.498,0,6.61-1.055,9.058-2.281c2.644-1.32,5.639-2.816,11.337-2.816c2.185,0,4.074,0.231,5.867,0.677l8.157-10.872h3.822
			v-26.801c0-4.768,1.858-9.248,5.228-12.617l3.954-3.953c-2.078-1.816-4.578-3.191-7.398-3.898l-14.743-3.682
			c-1.227,7.211-7.52,12.719-15.076,12.719s-13.851-5.508-15.077-12.719l-14.74,3.682c-2.823,0.707-5.321,2.084-7.401,3.898
			l3.954,3.953C64.519,302.361,66.377,306.842,66.377,311.609z M107.158,310.373h10.195v5.098h-10.195V310.373z"/>
		<path d="M191.27,292.531H163.79l-22.937,91.758h-89.77v15.293h96.854c2.812,0,5.099,2.287,5.099,5.098s-2.287,5.098-5.099,5.098
			h-84.11c-7.029,0-12.744,5.714-12.744,12.744c0,7.029,5.715,12.745,12.744,12.745s12.744-5.716,12.744-12.745
			c0-2.881-0.997-5.511-2.613-7.646h51.104c-1.616,2.136-2.613,4.766-2.613,7.646c0,7.029,5.715,12.745,12.744,12.745
			s12.744-5.716,12.744-12.745c0-2.881-0.996-5.511-2.612-7.646h2.612c5.623,0,10.195-4.574,10.195-10.195v-12.744
			c0-4.217-3.431-7.646-7.646-7.646h-4.385l21.667-86.66h23.499c1.406,0,2.548,1.142,2.548,2.549c0,1.406-1.142,2.549-2.548,2.549
			h-15.294v5.098h15.294c4.215,0,7.646-3.432,7.646-7.646C198.916,295.961,195.484,292.531,191.27,292.531z"/>
	</g>
</g>
</svg>
